<svg xmlns="http://www.w3.org/2000/svg" width="32" height="32" id="shield"><path d="M15.96 3a1 1 0 0 0-.22.034l-11 2.947a1 1 0 0 0-.74.965V17c0 3.357 1.668 5.712 3.895 7.426 2.226 1.713 5.003 2.939 7.605 4.441a1 1 0 0 0 1 0c2.511-1.45 5.29-2.678 7.537-4.402C26.284 22.74 28 20.366 28 16.999V6.946a1 1 0 0 0-.742-.965l-11-2.947a1 1 0 0 0-.297-.033zM15 5.303V26.3c-2.182-1.183-4.32-2.253-5.887-3.46C7.17 21.346 6 19.736 6 17V7.714Z" color="#000" font-family="sans-serif" font-weight="400" overflow="visible" style="line-height:normal;font-variant-ligatures:normal;font-variant-position:normal;font-variant-caps:normal;font-variant-numeric:normal;font-variant-alternates:normal;font-feature-settings:normal;text-indent:0;text-align:start;text-decoration-line:none;text-decoration-style:solid;text-decoration-color:#000;text-transform:none;text-orientation:mixed;shape-padding:0;isolation:auto;mix-blend-mode:normal"></path></svg>